# xmcd
#
# Track frame offsets: 
#        150
#        31854
#        69319
#        121189
#        161861
#        196051
#        224198
#        257531
#        274547
#
# Disc length: 3911 seconds
#
# Revision: 0
# Processed by: cddbd v1.5.2PL0 Copyright (c) Steve Scherf et al.
# Submitted via: ExactAudioCopy v0.99pb4
#
DISCID=7d0f4509
DTITLE=Ned Rothenberg and Denman Maroney - Tools of the Trade
DYEAR=1900
DGENRE=Avantgarde
TTITLE0=Saw
TTITLE1=Jug
TTITLE2=Plank
TTITLE3=Plane
TTITLE4=Crab
TTITLE5=Skeleton
TTITLE6=Feet
TTITLE7=Ham
TTITLE8=Drill
EXTD=
EXTT0=
EXTT1=
EXTT2=
EXTT3=
EXTT4=
EXTT5=
EXTT6=
EXTT7=
EXTT8=
PLAYORDER=
